<svg xmlns="http://www.w3.org/2000/svg" width="64" height="64" viewBox="0 0 64 64" aria-hidden="true"><defs><linearGradient id="eastsea-island-v3-3" x1="0" y1="0" x2="64" y2="64" gradientUnits="userSpaceOnUse" color-interpolation="sRGB"><stop offset="0" stop-color="#429c1c"/><stop offset="1" stop-color="#3b8b18"/></linearGradient></defs><rect width="64" height="64" rx="12" fill="url(#eastsea-island-v3-3)"/><g fill="#0d2135" transform="rotate(270 32 32)"><path d="M 8 43 C 16 39 17 18 31 11 C 44 4 56 14 54 27 C 48 18 36 17 34 28 C 40 26 51 32 56 43 C 40 52 22 51 8 43 Z" transform="translate(0 0) scale(1 0.8)"/><path d="M 8 51 C 10 44 25 48 28 45 L 30 53 C 27 58 11 60 8 51 Z"/><path d="M 41 7 C 44 4 50 3 54 6 L 52 10 C 44 12 42 10 41 7 Z"/></g></svg>