<svg xmlns="http://www.w3.org/2000/svg" width="64" height="64" viewBox="0 0 64 64" aria-hidden="true"><defs><linearGradient id="eastsea-island-v2-7" x1="0" y1="0" x2="64" y2="64" gradientUnits="userSpaceOnUse" color-interpolation="sRGB"><stop offset="0" stop-color="#257e52"/><stop offset="1" stop-color="#206f47"/></linearGradient></defs><rect width="64" height="64" rx="12" fill="url(#eastsea-island-v2-7)"/><g fill="#eed7a0" transform="rotate(0 32 32)"><path d="M 52 12 C 36 4 13 10 10 28 C 7 45 25 55 43 48 L 47 38 C 33 44 21 40 22 29 C 23 19 35 15 48 23 Z" transform="translate(0 0) scale(1 0.8)"/><path d="M 9 50 C 11 43 19 47 22 44 L 24 52 C 21 57 12 59 9 50 Z"/><path d="M 37 50 C 39 43 49 47 52 44 L 54 52 C 51 57 40 59 37 50 Z"/></g></svg>