<svg xmlns="http://www.w3.org/2000/svg" width="64" height="64" viewBox="0 0 64 64" aria-hidden="true"><defs><linearGradient id="eastsea-island-v2-13" x1="0" y1="0" x2="64" y2="64" gradientUnits="userSpaceOnUse" color-interpolation="sRGB"><stop offset="0" stop-color="#a029e0"/><stop offset="1" stop-color="#961fd6"/></linearGradient></defs><rect width="64" height="64" rx="12" fill="url(#eastsea-island-v2-13)"/><g fill="#eed7a0" transform="rotate(180 32 32)"><path d="M 9 43 L 19 15 C 21 9 25 9 28 17 L 33 29 L 42 12 C 45 7 48 9 50 17 L 56 43 C 42 51 24 51 9 43 Z" transform="translate(0 0) scale(1 0.8)"/><path d="M 9 51 C 11 44 21 48 24 45 L 26 53 C 23 58 12 60 9 51 Z"/><path d="M 37 52 C 39 45 47 49 50 46 L 52 54 C 49 59 40 61 37 52 Z"/></g></svg>