<svg xmlns="http://www.w3.org/2000/svg" width="64" height="64" viewBox="0 0 64 64" aria-hidden="true"><defs><linearGradient id="eastsea-island-v3-3" x1="0" y1="0" x2="64" y2="64" gradientUnits="userSpaceOnUse" color-interpolation="sRGB"><stop offset="0" stop-color="#429c1c"/><stop offset="1" stop-color="#3b8b18"/></linearGradient></defs><rect width="64" height="64" rx="12" fill="url(#eastsea-island-v3-3)"/><g fill="#0d2135" transform="rotate(180 32 32)"><path d="M 50 8 C 23 4 8 19 10 36 C 12 52 33 58 52 45 C 30 43 29 23 50 8 Z" transform="translate(0 0) scale(1 0.8)"/><path d="M 10 49 C 12 42 27 46 30 43 L 32 51 C 29 56 13 58 10 49 Z"/><path d="M 43 10 C 46 7 50 6 54 9 L 52 13 C 46 15 44 13 43 10 Z"/></g></svg>