<svg xmlns="http://www.w3.org/2000/svg" width="64" height="64" viewBox="0 0 64 64" aria-hidden="true"><defs><linearGradient id="eastsea-island-v3-12" x1="0" y1="0" x2="64" y2="64" gradientUnits="userSpaceOnUse" color-interpolation="sRGB"><stop offset="0" stop-color="#df6320"/><stop offset="1" stop-color="#cd5b1d"/></linearGradient></defs><rect width="64" height="64" rx="12" fill="url(#eastsea-island-v3-12)"/><g fill="#0d2135" transform="rotate(180 32 32)"><path d="M 11 10 L 25 10 L 25 32 C 25 45 43 44 43 32 L 43 22 L 55 22 L 55 35 C 55 59 11 58 11 35 Z" transform="translate(0 0) scale(1 0.8)"/><path d="M 8 50 C 10 43 24 47 27 44 L 29 52 C 26 57 11 59 8 50 Z"/><path d="M 41 7 C 44 4 47 3 51 6 L 49 10 C 44 12 42 10 41 7 Z"/></g></svg>